PathFileType	4	(X/Y/Z)	/Users/itak/Documents/Research/Walk-IL/dataset/trc/00541_00009.trc
DataRate	CameraRate	NumFrames	NumMarkers	Units	OrigDataRate	OrigDataStartFrame	OrigNumFrames
100.000000	100.000000	4	53	mm	100.000000	329	878
Frame#	Time	RPSI			LPSI			L3			STRN			T10			C7			CLAV			RBAK			LBAK			LSHO			LUPA			LAEL			LAOL			LWTS			LWPS			LFRA			LIFD			LHPS			LHTS			RSHO			RUPA			RAEL			RAOL			RWTS			RWPS			RFRA			RIFD			RHTS			RHPS			RBHD			LFHD			RFHD			LBHD			LHIP			RHIP			RASI			LASI			LKNE			LTHI			LANK			LTIP			LTOE			LMT1			LMT5			LHEE			RKNE			RTHI			RANK			RTIP			RTOE			RMT1			RMT5			RHEE			
		X1	Y1	Z1	X2	Y2	Z2	X3	Y3	Z3	X4	Y4	Z4	X5	Y5	Z5	X6	Y6	Z6	X7	Y7	Z7	X8	Y8	Z8	X9	Y9	Z9	X10	Y10	Z10	X11	Y11	Z11	X12	Y12	Z12	X13	Y13	Z13	X14	Y14	Z14	X15	Y15	Z15	X16	Y16	Z16	X17	Y17	Z17	X18	Y18	Z18	X19	Y19	Z19	X20	Y20	Z20	X21	Y21	Z21	X22	Y22	Z22	X23	Y23	Z23	X24	Y24	Z24	X25	Y25	Z25	X26	Y26	Z26	X27	Y27	Z27	X28	Y28	Z28	X29	Y29	Z29	X30	Y30	Z30	X31	Y31	Z31	X32	Y32	Z32	X33	Y33	Z33	X34	Y34	Z34	X35	Y35	Z35	X36	Y36	Z36	X37	Y37	Z37	X38	Y38	Z38	X39	Y39	Z39	X40	Y40	Z40	X41	Y41	Z41	X42	Y42	Z42	X43	Y43	Z43	X44	Y44	Z44	X45	Y45	Z45	X46	Y46	Z46	X47	Y47	Z47	X48	Y48	Z48	X49	Y49	Z49	X50	Y50	Z50	X51	Y51	Z51	X52	Y52	Z52	X53	Y53	Z53	

330	3.29	-376.7734069824219	1017.524597167969	464.0876770019531	-376.9586791992188	1021.258666992188	329.5675964355469	-374.144287109375	1112.67431640625	393.6390075683594	-139.994384765625	1297.522094726562	387.92431640625	-384.1238098144531	1236.721435546875	391.2923889160156	-335.2212524414062	1509.232421875	405.2202453613281	-157.5848236083984	1409.955200195312	391.5968322753906	-402.5892333984375	1384.703369140625	495.2841186523438	-369.2056579589844	1458.547729492188	310.3211669921875	-267.3974304199219	1484.804809570312	230.9624633789062	-267.6091918945312	1360.571044921875	147.05517578125	-231.3534545898438	1139.196044921875	128.0237579345703	-325.3874816894531	1125.60546875	164.1667175292969	-122.9536514282227	908.44482421875	193.4059143066406	-155.9716491699219	878.984619140625	118.0709686279297	-200.5252075195312	1055.252197265625	126.7973480224609	-105.681770324707	738.6911010742188	195.2962799072266	-141.3471527099609	821.0053100585938	129.4089202880859	-96.15578460693359	833.1808471679688	178.6746215820312	-269.6774597167969	1471.32470703125	559.4859619140625	-284.5997009277344	1407.143310546875	629.03759765625	-282.9804992675781	1115.508178710938	671.3794555664062	-338.0011901855469	1097.689086914062	646.4937133789062	-148.4053497314453	897.5355834960938	623.777099609375	-188.5701446533203	876.4724731445312	692.26904296875	-271.232177734375	1060.056396484375	677.98046875	-134.0290222167969	724.7086181640625	625.9407348632812	-117.0092163085938	806.8828125	636.9342651367188	-169.7089080810547	801.9942626953125	689.0707397460938	-263.3442077636719	1682.384155273438	477.25537109375	-122.5046234130859	1718.960571289062	328.6161499023438	-126.4084167480469	1713.522705078125	473.1695251464844	-251.7085418701172	1687.358276367188	311.9765014648438	-251.5396728515625	943.2879638671875	197.5205535888672	-250.3753356933594	938.2623291015625	581.260009765625	-166.6435089111328	969.4657592773438	522.0933227539062	-172.9687652587891	965.1129150390625	246.5997009277344	-201.2852020263672	493.6612854003906	196.8642883300781	-207.7863311767578	666.3445434570312	186.66064453125	-554.5046997070312	144.0902252197266	187.0146942138672	-399.0164794921875	324.6446533203125	183.5554809570312	-376.6882934570312	48.92689514160156	249.5007781982422	-434.5109252929688	89.56257629394531	282.5189514160156	-458.8908386230469	72.55208587646484	181.8337554931641	-603.7152099609375	196.1104736328125	236.9277648925781	-207.7622222900391	493.7064819335938	500.8520202636719	-207.1328887939453	782.1451416015625	566.640625	-303.3042907714844	37.09080505371094	453.0243225097656	-208.6775970458984	350.2220153808594	474.97265625	-85.31764221191406	39.22561645507812	396.3691101074219	-152.2550964355469	40.45587539672852	360.4477233886719	-168.8275909423828	38.39104843139648	464.1204223632812	-361.6753234863281	33.64852905273438	400.0553588867188	
331	3.3	-374.7223205566406	1017.398315429688	464.4269409179688	-374.7967529296875	1021.308898925781	329.9482727050781	-372.1347045898438	1112.970947265625	394.4173583984375	-137.7504272460938	1297.711059570312	388.4470825195312	-382.1060180664062	1237.0693359375	392.3863525390625	-332.7090759277344	1509.529907226562	406.2718811035156	-155.2164306640625	1410.13427734375	392.0921936035156	-399.9609375	1385.078369140625	496.5216064453125	-367.0093383789062	1458.895263671875	311.4609985351562	-265.4337768554688	1485.093505859375	231.7936859130859	-266.2255859375	1360.929931640625	147.8569641113281	-230.5095520019531	1139.518920898438	128.4754791259766	-324.2936096191406	1125.96923828125	165.2703094482422	-121.3183517456055	909.0294799804688	193.1911315917969	-154.8746643066406	879.4276123046875	118.1380767822266	-199.6138916015625	1055.642822265625	127.0295486450195	-103.7505645751953	739.295166015625	195.1244201660156	-140.076904296875	821.483154296875	129.4641265869141	-94.56485748291016	833.7621459960938	178.3563842773438	-266.7080993652344	1471.501708984375	560.3421630859375	-281.4420166015625	1407.344970703125	629.9146728515625	-279.9651489257812	1115.666015625	672.1786499023438	-335.2502746582031	1097.999267578125	647.593505859375	-146.0382385253906	897.4423828125	624.0748901367188	-185.9433135986328	876.4891967773438	692.7389526367188	-268.25830078125	1060.16162109375	678.6620483398438	-132.0112762451172	724.604736328125	626.1407470703125	-114.7700119018555	806.7340087890625	637.0676879882812	-167.2167816162109	802.1403198242188	689.533447265625	-260.4076538085938	1682.498657226562	478.1260375976562	-119.7900619506836	1718.965087890625	329.2527770996094	-123.4217987060547	1713.398071289062	473.8052978515625	-249.0665588378906	1687.609375	312.8365173339844	-249.4424133300781	944.3200073242188	197.5505828857422	-248.5109558105469	938.1192016601562	581.6526489257812	-164.7051849365234	969.477783203125	522.8993530273438	-170.5765075683594	965.77734375	247.4000854492188	-194.5341033935547	494.787109375	197.0966339111328	-202.7463073730469	667.3370971679688	186.8780059814453	-544.1465454101562	142.3548583984375	185.6175537109375	-391.1864318847656	324.5364990234375	183.3152313232422	-363.265380859375	50.45962524414062	243.3013458251953	-421.3948669433594	88.52877807617188	277.9730529785156	-446.6907043457031	73.72410583496094	177.2285919189453	-594.0313110351562	191.9676666259766	237.2656860351562	-207.3154144287109	493.4695434570312	501.33740234375	-205.5302581787109	781.9402465820312	566.9796752929688	-303.26904296875	37.13790893554688	452.9352111816406	-208.4471282958984	350.1052551269531	475.1724548339844	-85.25750732421875	39.16779327392578	396.3697814941406	-152.2108154296875	40.46333694458008	360.4407958984375	-168.8108062744141	38.38916778564453	464.1344299316406	-361.6181335449219	33.68424224853516	399.9753723144531	
332	3.31	-372.7190856933594	1017.294860839844	464.6611022949219	-372.6405334472656	1021.385192871094	330.2723388671875	-370.1080322265625	1113.249755859375	395.1343994140625	-135.52978515625	1297.906982421875	388.9566650390625	-380.1099548339844	1237.39453125	393.4387817382812	-330.2456665039062	1509.81884765625	407.2994079589844	-152.879150390625	1410.316284179688	392.5683898925781	-397.3711853027344	1385.439697265625	497.7244262695312	-364.8425598144531	1459.226684570312	312.5764465332031	-263.5015869140625	1485.375122070312	232.5929565429688	-264.9113464355469	1361.290405273438	148.6256713867188	-229.8104858398438	1139.834228515625	128.8813323974609	-323.3145751953125	1126.347900390625	166.3812408447266	-119.7991180419922	909.6016845703125	192.86474609375	-153.9358825683594	879.8612670898438	118.1085586547852	-198.8511962890625	1056.030883789062	127.1867141723633	-101.9480819702148	739.8883666992188	194.8339385986328	-138.9837951660156	821.9375610351562	129.4185028076172	-93.10791015625	834.3298950195312	177.9002075195312	-263.787353515625	1471.686889648438	561.1685791015625	-278.3384094238281	1407.546264648438	630.7661743164062	-276.9907531738281	1115.823120117188	672.9359741210938	-332.5303955078125	1098.311645507812	648.6360473632812	-143.7339324951172	897.3302001953125	624.3519897460938	-183.3874053955078	876.4876708984375	693.1803588867188	-265.3414916992188	1060.273803710938	679.3215942382812	-130.0814514160156	724.4817504882812	626.3236694335938	-112.6101150512695	806.5585327148438	637.1854248046875	-164.7690277099609	802.2943725585938	689.9876098632812	-257.5045166015625	1682.62939453125	478.962890625	-117.1018524169922	1718.953857421875	329.8524475097656	-120.4715805053711	1713.265502929688	474.3978271484375	-246.4554138183594	1687.865966796875	313.6671142578125	-247.3965148925781	945.355712890625	197.52587890625	-246.7096557617188	937.9569702148438	582.0138549804688	-162.7817840576172	969.4918212890625	523.6881713867188	-168.1949310302734	966.4326171875	248.1946411132812	-188.0408935546875	495.9305419921875	197.5026245117188	-197.8862457275391	668.3143310546875	187.1519165039062	-533.3809204101562	140.0418701171875	184.2509307861328	-383.2406005859375	324.1202087402344	183.1644897460938	-349.3628540039062	51.75310897827148	236.9451904296875	-407.7901000976562	87.08573913574219	273.3049926757812	-434.0592041015625	74.61776733398438	172.5257720947266	-583.8455810546875	187.1260833740234	237.6196441650391	-206.8933563232422	493.2380676269531	501.806884765625	-204.0297241210938	781.7442016601562	567.34814453125	-303.2391662597656	37.18256759643555	452.8555603027344	-208.2265014648438	349.9912109375	475.3676452636719	-85.20554351806641	39.11633682250977	396.3735656738281	-152.1678771972656	40.46831893920898	360.4320373535156	-168.7967376708984	38.38588333129883	464.1483764648438	-361.5515441894531	33.72336959838867	399.8934020996094	
333	3.32	-370.7460327148438	1017.214599609375	464.8234252929688	-370.4949951171875	1021.475830078125	330.5498657226562	-368.0580749511719	1113.50927734375	395.7925415039062	-133.3302612304688	1298.101196289062	389.4548950195312	-378.1273193359375	1237.692749023438	394.4431457519531	-327.8291015625	1510.09130859375	408.3019714355469	-150.5717620849609	1410.494140625	393.0305786132812	-394.8219299316406	1385.778442382812	498.89306640625	-362.7047424316406	1459.536499023438	313.6661376953125	-261.5928955078125	1485.6416015625	233.3621826171875	-263.6474914550781	1361.64208984375	149.3641967773438	-229.2304382324219	1140.134887695312	129.2408599853516	-322.4333801269531	1126.7353515625	167.4846649169922	-118.3984069824219	910.1470336914062	192.4356384277344	-153.1537170410156	880.2718505859375	117.9888000488281	-198.2171325683594	1056.404296875	127.2795944213867	-100.2834777832031	740.4575805664062	194.4291534423828	-138.0713500976562	822.3527221679688	129.2809448242188	-91.77397155761719	834.8706665039062	177.3022613525391	-260.9192199707031	1471.872192382812	561.9678344726562	-275.2958984375	1407.740844726562	631.5931396484375	-274.06494140625	1115.9716796875	673.6521606445312	-329.8394470214844	1098.614501953125	649.614013671875	-141.4810180664062	897.2061157226562	624.61376953125	-180.8990783691406	876.4650268554688	693.59423828125	-262.4925537109375	1060.39013671875	679.96337890625	-128.2163543701172	724.3434448242188	626.49365234375	-110.5147552490234	806.3628540039062	637.3009033203125	-162.3719024658203	802.4381713867188	690.4287109375	-254.6407318115234	1682.770385742188	479.7660522460938	-114.4446029663086	1718.924194335938	330.4166870117188	-117.5652389526367	1713.125366210938	474.9504699707031	-243.8772583007812	1688.117797851562	314.4636535644531	-245.3317413330078	946.3308715820312	197.4990081787109	-244.9524230957031	937.774658203125	582.3541259765625	-160.8649444580078	969.501953125	524.4489135742188	-165.8267669677734	967.0664672851562	248.9707489013672	-181.7867279052734	497.0667724609375	198.0746002197266	-193.1833648681641	669.2559814453125	187.4816436767578	-522.2017211914062	137.2074890136719	182.9051055908203	-375.1615905761719	323.3804321289062	183.0919952392578	-335.0535583496094	52.83391571044922	230.5440063476562	-393.7843322753906	85.29014587402344	268.6004638671875	-421.0498657226562	75.24604797363281	167.8036041259766	-573.1704711914062	181.6613464355469	237.9646148681641	-206.4854888916016	493.0160827636719	502.2545776367188	-202.6115875244141	781.55712890625	567.7388916015625	-303.2172241210938	37.22449111938477	452.7880859375	-208.0239105224609	349.8751525878906	475.5641479492188	-85.15591430664062	39.07136154174805	396.3744506835938	-152.1299896240234	40.46792984008789	360.4227905273438	-168.7864074707031	38.38093566894531	464.1632080078125	-361.4837036132812	33.76535034179688	399.8154907226562	
